# AST/ASF file generated using VICON BodyLanguage
# -----------------------------------------------
:version 1.10
:name VICON
:units
  mass 1.0
  length 0.45
  angle deg
:documentation
   .ast/.asf automatically generated from VICON data using
   VICON BodyBuilder and BodyLanguage model FoxedUp or BRILLIANT.MOD
:root
   order TX TY TZ RX RY RZ
   axis XYZ
   position 0 0 0  
   orientation 0 0 0 
:bonedata
  begin
     id 1 
     name lhipjoint
     direction 0.588788 -0.725889 0.355548 
     length 2.37778 
     axis 0 0 0  XYZ
  end
  begin
     id 2 
     name lfemur
     direction 0.34202 -0.939693 0  
     length 6.86393  
     axis 0 0 20  XYZ
    dof rx ry rz
    limits (-160.0 20.0)
           (-70.0 70.0)
           (-60.0 70.0)
  end
  begin
     id 3 
     name ltibia
     direction 0.34202 -0.939693 0   
     length 7.32851   
     axis 0 0 20   XYZ
    dof rx
    limits (-10.0 170.0)
  end
  begin
     id 4 
     name lfoot
     direction 0.0626533 -0.172138 0.983078   
     length 1.98929   
     axis -90 7.62852e-016 20   XYZ
    dof rx rz
    limits (-45.0 90.0)
           (-70.0 20.0)
  end
  begin
     id 5 
     name ltoes
     direction 1.53647e-011 -4.21734e-011 1   
     length 1.00479   
     axis -90 7.62852e-016 20   XYZ
    dof rx
    limits (-90.0 20.0)
  end
  begin
     id 6 
     name rhipjoint
     direction -0.59141 -0.724168 0.354705   
     length 2.38343  
     axis 0 0 0  XYZ 
  end
  begin
     id 7 
     name rfemur
     direction -0.34202 -0.939693 0   
     length 6.95589   
     axis 0 0 -20   XYZ
    dof rx ry rz
    limits (-160.0 20.0)
           (-70.0 70.0)
           (-70.0 60.0)
  end
  begin
     id 8 
     name rtibia
     direction -0.34202 -0.939693 0   
     length 7.32327   
     axis 0 0 -20   XYZ
    dof rx
    limits (-10.0 170.0)
 end
 begin
     id 9 
     name rfoot
     direction -0.0660461 -0.18146 0.981178   
     length 1.85272  
     axis -90 -7.62852e-016 -20   XYZ
    dof rx rz
    limits (-45.0 90.0)
           (-20.0 70.0)
  end
  begin
     id 10 
     name rtoes
     direction -1.53586e-011 -4.21988e-011 1   
     length 0.93746   
     axis -90 -7.62852e-016 -20   XYZ
    dof rx
    limits (-90.0 20.0)
  end
  begin
     id 11 
     name lowerback
     direction -0.0107982 0.991059 0.13299   
     length 1.98691   
     axis 0 0 0   XYZ
    dof rx ry rz
    limits (-20.0 45.0)
           (-30.0 30.0)
           (-30.0 30.0)
  end
  begin
     id 12 
     name upperback
     direction 0.0076296 0.999916 0.0104576   
     length 1.99501   
     axis 0 0 0   XYZ
    dof rx ry rz
    limits (-20.0 45.0)
           (-30.0 30.0)
           (-30.0 30.0)
  end
  begin
     id 13 
     name thorax
     direction 0.01176 0.998615 -0.0512909   
     length 2.03144   
     axis 0 0 0   XYZ
    dof rx ry rz
    limits (-20.0 45.0)
           (-30.0 30.0)
           (-30.0 30.0)
  end
  begin
     id 14 
     name lowerneck
     direction -0.0171909 0.999644 0.0204011   
     length 1.71818   
     axis 0 0 0   XYZ
    dof rx ry rz
    limits (-20.0 45.0)
           (-30.0 30.0)
           (-30.0 30.0)
  end
  begin
     id 15 
     name upperneck
     direction 0.0250902 0.997482 -0.0663316   
     length 1.66199   
     axis 0 0 0   XYZ
    dof rx ry rz
    limits (-20.0 45.0)
           (-30.0 30.0)
           (-30.0 30.0)
  end
  begin
     id 16
     name head
     direction 0.00881535 0.99956 -0.0283365  
     length 1.81545  
     axis 0 0 0   XYZ
    dof rx ry rz
    limits (-20.0 45.0)
           (-30.0 30.0)
           (-30.0 30.0)
  end
  begin
     id 17 
     name lclavicle
     direction 0.840411 0.486876 -0.238035  
     length 3.30409  
     axis 0 0 0   XYZ
    dof ry rz
    limits (-20.0 10.0)
           (0.0 20.0)
  end
  begin
     id 18 
     name lhumerus
     direction 1 -4.48977e-011 -5.16239e-027   
     length 4.62672   
     axis 180 -30 -90   XYZ
    dof rx ry rz
    limits (-60.0 90.0)
           (-90.0 90.0)
           (-90.0 90.0)
  end
  begin
     id 19
     name lradius
     direction 1 -4.48977e-011 -8.71171e-027   
     length 3.11018   
     axis 180 -30 -90   XYZ
    dof rx
    limits (-10.0 170.0)
  end
  begin
     id 20
     name lwrist
     direction 1 -4.48912e-011 -1.03764e-026   
     length 1.55509   
     axis 9.09556e-015 90 90   XYZ
    dof ry
    limits (-180.0 0.0)
 end
  begin
     id 21 
     name lhand
     direction 1 -4.49072e-011 -2.07528e-026   
     length 0.743834   
     axis 1.3242e-014 90 90   XYZ
    dof rx rz
    limits (-90.0 90.0)
           (-45.0 45.0)
  end
  begin
     id 22 
     name lfingers
     direction 1 -4.48909e-011 -4.15056e-026   
     length 0.599698   
     axis 2.64841e-014 90 90   XYZ
    dof rx
    limits (0.0 90.0)
  end
  begin
     id 23
     name lthumb
     direction 0.707107 -6.35013e-011 0.707107   
     length 0.86105   
     axis -90 45 2.85299e-015   XYZ
    dof rx rz
    limits (-45.0 45.0)
           (-45.0 45.0)
  end
  begin
     id 24 
     name rclavicle
     direction -0.835208 0.500237 -0.228452   
     length 3.2716  
     axis 0 0 0   XYZ 
    dof ry rz
    limits (-10.0 20.0)
           (-20.0 0.0)
  end
  begin
     id 25 
     name rhumerus
     direction -1 -4.48978e-011 -5.1953e-028  
     length 4.55919   
     axis 180 30 90   XYZ
    dof rx ry rz
    limits (-90.0 60.0)
           (-90.0 90.0)
           (-90.0 90.0)
  end
  begin
     id 26 
     name rradius
     direction -1 -4.48961e-011 -5.99546e-027   
     length 3.22748   
     axis 180 30 90   XYZ
    dof rx
    limits (-10.0 170.0)
  end
  begin
     id 27 
     name rwrist
     direction -1 -4.48986e-011 -1.03764e-026   
     length 1.61374   
     axis 9.09556e-015 -90 -90   XYZ
    dof ry
    limits (-180.0 0.0)
  end
  begin
     id 28
     name rhand
     direction -1 -4.4899e-011 -2.07528e-026   
     length 0.700882   
     axis 1.3242e-014 -90 -90   XYZ
    dof rx rz
    limits (-90.0 90.0)
           (-45.0 45.0)
  end
  begin
     id 29
     name rfingers
     direction -1 -4.48991e-011 -4.15056e-026   
     length 0.565069   
     axis 2.64841e-014 -90 -90   XYZ
    dof rx
    limits (0.0 90.0)
  end
  begin
     id 30
     name rthumb
     direction -0.707107 -6.34804e-011 0.707107   
     length 0.811329   
     axis -90 -45 -2.85299e-015   XYZ
    dof rx rz
    limits (-45.0 45.0)
           (-45.0 45.0)
  end
:hierarchy
  begin
    root lhipjoint rhipjoint lowerback
    lhipjoint lfemur
    lfemur ltibia
    ltibia lfoot
    lfoot ltoes
    rhipjoint rfemur
    rfemur rtibia
    rtibia rfoot
    rfoot rtoes
    lowerback upperback
    upperback thorax
    thorax lowerneck lclavicle rclavicle
    lowerneck upperneck
    upperneck head
    lclavicle lhumerus
    lhumerus lradius
    lradius lwrist
    lwrist lhand lthumb
    lhand lfingers
    rclavicle rhumerus
    rhumerus rradius
    rradius rwrist
    rwrist rhand rthumb
    rhand rfingers
  end

#!OML:ASF F:\VICON\USERDATA\INSTALL\SteveWalk\SteveWalk.ASF
:FULLY-SPECIFIED
:DEGREES
81
root -0.304541 16.3932 -24.7645 17.5311 2.47224 2.34486
lowerback -14.7482 -2.0851 -3.87404
upperback -5.13962 -2.19476 -0.156827
thorax 2.95796 -1.07135 1.64765
lowerneck -3.46142 -1.38677 -0.456866
upperneck 9.02298 -1.99442 1.78824
head 3.54856 -0.932679 0.583219
rclavicle -5.44095e-015 1.15295e-014
rhumerus -60.9725 -29.7195 -53.8117
rradius 13.0902
rwrist 31.2441
rhand -11.0628 -35.4197
rfingers 7.12502
rthumb 14.96 295.141
lclavicle -5.44095e-015 1.15295e-014
lhumerus -24.6864 -4.92721 85.2599
lradius 32.9039
lwrist 4.30958
lhand -19.4423 -15.8153
lfingers 7.12502
lthumb 6.87821 14.0529
rfemur -50.7606 -6.08578 21.465
rtibia 47.5195
rfoot -13.2767 -5.60362
rtoes -11.095
lfemur -19.5231 7.17452 -25.8657
ltibia 30.3959
lfoot -25.7632 -9.94565
ltoes -0.274783
82
root -0.314274 16.3962 -24.5618 17.5596 2.8487 2.38309
lowerback -14.6894 -2.18647 -3.87859
upperback -5.29889 -2.33469 -0.124632
thorax 2.76813 -1.13537 1.66449
lowerneck -2.49045 -1.39194 -0.445037
upperneck 8.56405 -1.99153 1.76722
head 3.20272 -0.93942 0.579635
rclavicle -7.92722e-015 -2.98177e-015
rhumerus -63.5779 -30.556 -50.3586
rradius 12.7355
rwrist 33.6424
rhand -10.5184 -35.4314
rfingers 7.12502
rthumb 15.4843 295.169
lclavicle -7.92722e-015 -2.98177e-015
lhumerus -24.3445 -6.29454 85.3244
lradius 34.4347
lwrist 5.32311
lhand -19.5682 -15.6088
lfingers 7.12502
lthumb 6.75668 14.2634
rfemur -51.0252 -5.98696 21.4018
rtibia 44.1574
rfoot -12.3934 -5.75077
rtoes -9.43594
lfemur -18.2885 7.37681 -25.6782
ltibia 29.4434
lfoot -25.8015 -10.1345
ltoes -1.08999
83
root -0.321388 16.3847 -24.3585 17.4933 3.33758 2.3262
lowerback -14.4208 -2.29486 -3.72888
upperback -5.17473 -2.50947 -0.0934981
thorax 2.76117 -1.22448 1.58894
lowerneck -2.81612 -1.48105 -0.271656
upperneck 8.45383 -2.10662 1.61032
head 3.22333 -0.995604 0.492385
rclavicle -4.85236e-015 -1.13307e-014
rhumerus -65.5515 -31.5598 -47.4482
rradius 12.3674
rwrist 35.8371
rhand -10.2469 -35.1881
rfingers 7.12502
rthumb 15.7458 295.432
lclavicle -4.85236e-015 -1.13307e-014
lhumerus -23.254 -7.60367 85.2079
lradius 35.8464
lwrist 6.39662
lhand -19.9319 -15.7073
lfingers 7.12502
lthumb 6.40558 14.1759
rfemur -51.0453 -6.07376 21.5129
rtibia 40.742
rfoot -11.3407 -5.95342
rtoes -10.5812
lfemur -16.9367 7.40155 -25.3455
ltibia 28.5272
lfoot -25.997 -10.0045
ltoes -2.64635
84
root -0.327953 16.3576 -24.1486 17.4135 3.90557 2.37824
lowerback -14.1294 -2.43127 -3.6711
upperback -5.226 -2.71123 -0.0933784
thorax 2.55997 -1.32157 1.53403
lowerneck -2.46471 -1.57965 -0.184677
upperneck 8.27832 -2.23822 1.58945
head 3.09629 -1.06175 0.468439
rclavicle -1.37724e-014 4.07509e-015
rhumerus -68.0105 -32.2103 -44.1557
rradius 12.0624
rwrist 38.0144
rhand -10.1972 -35.3287
rfingers 7.12502
rthumb 15.7937 295.296
lclavicle -1.37724e-014 4.07509e-015
lhumerus -22.5457 -8.77951 85.0937
lradius 37.2395
lwrist 7.38422
lhand -20.7709 -16.2826
lfingers 7.12502
lthumb 5.59551 13.6235
rfemur -50.8631 -6.30409 21.5292
rtibia 37.3208
rfoot -10.4702 -6.17186
rtoes -14.6143
lfemur -15.5493 7.29122 -25.0669
ltibia 27.6494
lfoot -26.091 -10.2863
ltoes -2.59948
85
root -0.337894 16.3389 -23.9374 17.4048 4.5672 2.59858
lowerback -13.9592 -2.69242 -3.87262
upperback -5.18355 -3.03733 -0.0454209
thorax 2.54288 -1.48213 1.64857
lowerneck -2.53787 -1.61453 -0.182839
upperneck 8.23499 -2.28563 1.6018
head 3.09597 -1.08466 0.469991
rclavicle 1.02871e-014 1.19271e-015
rhumerus -70.5061 -33.1209 -40.1213
rradius 11.6566
rwrist 40.6957
rhand -10.3853 -34.9998
rfingers 7.12502
rthumb 15.6126 295.61
lclavicle 1.02871e-014 1.19271e-015
lhumerus -21.732 -9.49684 84.8974
lradius 38.6614
lwrist 8.05158
lhand -21.6961 -16.19
lfingers 7.12502
lthumb 4.70222 13.7379
rfemur -50.6715 -6.50793 21.2358
rtibia 33.9082
rfoot -9.79152 -6.31257
rtoes -17.9651
lfemur -14.2688 7.22877 -24.9112
ltibia 26.8545
lfoot -26.1422 -10.9027
ltoes -2.09998
86
root -0.348105 16.3237 -23.7258 17.4595 5.17037 2.7609
lowerback -13.9244 -2.91831 -4.01421
upperback -5.11611 -3.31851 0.0117381
thorax 2.62189 -1.62246 1.7404
lowerneck -2.72835 -1.65847 -0.255323
upperneck 8.22195 -2.34777 1.68767
head 3.13079 -1.11375 0.506741
rclavicle 3.20847e-014 8.34896e-015
rhumerus -72.9179 -33.8826 -36.2154
rradius 11.3639
rwrist 42.8951
rhand -10.7289 -34.2967
rfingers 7.12502
rthumb 15.2817 296.288
lclavicle 3.20847e-014 8.34896e-015
lhumerus -20.8974 -10.0734 84.6921
lradius 39.895
lwrist 8.68873
lhand -21.6554 -15.6068
lfingers 7.12502
lthumb 4.74154 14.3202
rfemur -50.5496 -6.53262 20.8569
rtibia 30.6312
rfoot -9.34966 -6.19043
rtoes -20.161
lfemur -13.0574 7.35315 -24.7106
ltibia 26.0209
lfoot -26.1488 -11.603
ltoes -2.23555
87
root -0.355156 16.2975 -23.5081 17.4997 5.70593 2.91006
lowerback -14.0217 -3.08505 -4.08174
upperback -5.03094 -3.52272 0.0279706
thorax 2.78079 -1.72661 1.75367
lowerneck -2.75138 -1.7082 -0.371034
upperneck 8.14895 -2.42046 1.86047
head 3.11588 -1.14751 0.580132
rclavicle -2.80088e-014 5.96354e-016
rhumerus -74.2651 -33.7806 -34.5932
rradius 11.3996
rwrist 42.9874
rhand -10.925 -34.2152
rfingers 7.12502
rthumb 15.0928 296.355
lclavicle -2.80088e-014 5.96354e-016
lhumerus -20.0671 -10.7074 84.4872
lradius 41.0168
lwrist 9.41135
lhand -21.1014 -15.3435
lfingers 7.12502
lthumb 5.27647 14.5708
rfemur -50.4603 -6.67138 20.6
rtibia 27.6571
rfoot -9.29866 -5.81215
rtoes -17.7167
lfemur -11.738 7.4305 -24.5036
ltibia 25.0155
lfoot -26.0033 -12.2626
ltoes -2.5581
88
root -0.363184 16.2709 -23.2849 17.5082 6.25525 3.1598
lowerback -14.2239 -3.30237 -4.29643
upperback -4.86931 -3.76595 0.0381799
thorax 3.08768 -1.85278 1.82722
lowerneck -2.68037 -1.76833 -0.372239
upperneck 7.8272 -2.50206 1.954
head 2.99539 -1.18727 0.608615
rclavicle -2.95257e-014 -8.12532e-015
rhumerus -74.6762 -33.2413 -34.6248
rradius 11.6296
rwrist 41.659
rhand -10.7663 -34.4203
rfingers 7.12502
rthumb 15.2456 296.161
lclavicle -2.95257e-014 -8.12532e-015
lhumerus -19.1756 -11.1862 84.2128
lradius 42.1816
lwrist 9.93356
lhand -20.9843 -15.7078
lfingers 7.12502
lthumb 5.38947 14.2037
rfemur -50.3679 -7.01687 20.3869
rtibia 25.029
rfoot -9.57465 -5.26921
rtoes -17.8296
lfemur -10.305 7.22857 -24.3613
ltibia 23.9312
lfoot -25.7678 -12.7165
ltoes -2.97272
89
root -0.373357 16.2514 -23.0633 17.4847 6.74618 3.3958
lowerback -14.3505 -3.51609 -4.5307
upperback -4.7037 -4.0055 0.0661656
thorax 3.36238 -1.97731 1.93238
lowerneck -2.67604 -1.79747 -0.213255
upperneck 7.49841 -2.53748 1.87579
head 2.87926 -1.20519 0.555168
rclavicle -1.32782e-015 -6.08778e-015
rhumerus -75.9322 -33.4293 -32.6937
rradius 11.6244
rwrist 41.8986
rhand -10.4878 -34.9058
rfingers 7.12502
rthumb 15.5139 295.697
lclavicle -1.32782e-015 -6.08778e-015
lhumerus -18.3124 -11.4033 83.9406
lradius 43.277
lwrist 10.3118
lhand -21.0594 -16.5823
lfingers 7.12502
lthumb 5.317 13.331
rfemur -50.2583 -7.11072 19.9988
rtibia 22.7739
rfoot -9.92929 -4.71282
rtoes -16.7133
lfemur -8.783 6.73088 -24.2082
ltibia 22.7948
lfoot -25.657 -12.419
ltoes -4.98022
90
root -0.384476 16.2263 -22.8457 17.3945 7.21995 3.47937
lowerback -14.2664 -3.67442 -4.58232
upperback -4.56442 -4.21039 0.104095
thorax 3.48451 -2.08283 1.96333
lowerneck -2.9868 -1.7994 0.0653132
upperneck 7.46312 -2.53998 1.65362
head 2.9171 -1.20456 0.432935
rclavicle 1.50663e-014 8.92667e-015
rhumerus -77.8417 -34.0181 -29.4644
rradius 11.4465
rwrist 43.4491
rhand -10.4199 -35.3986
rfingers 7.12502
rthumb 15.5793 295.209
lclavicle 1.50663e-014 8.92667e-015
lhumerus -17.4835 -11.6412 83.6599
lradius 44.2375
lwrist 10.827
lhand -21.1972 -17.2935
lfingers 7.12502
lthumb 5.18395 12.6231
rfemur -50.1615 -7.04426 19.672
rtibia 20.9231
rfoot -10.1896 -4.08717
rtoes -16.2924
lfemur -7.11826 6.17408 -23.8706
ltibia 21.5156
lfoot -25.3938 -12.136
ltoes -7.12246
